<svg width="1440" height="536" viewBox="0 0 1440 536" fill="none" xmlns="http://www.w3.org/2000/svg">
<path d="M-23.382 49.4304C-25.7054 48.1508 -28.5318 48.1937 -30.8154 49.543C-33.099 50.8924 -34.5 53.3476 -34.5 56V266V558C-34.5 562.142 -31.1421 565.5 -27 565.5H1466C1470.14 565.5 1473.5 562.142 1473.5 558V56C1473.5 52.9913 1471.7 50.2739 1468.93 49.0973C1466.16 47.9207 1462.96 48.5127 1460.79 50.6012L1408.93 100.612L1393.86 91.5688C1390.95 89.8229 1387.23 90.2483 1384.79 92.6063L1284.56 189.447L1240.87 174.885C1238.98 174.256 1236.93 174.402 1235.15 175.292L1206.58 189.575L1083.98 125.356C1081.87 124.251 1079.36 124.214 1077.22 125.256L1004.77 160.5H460.5C459.534 160.5 458.577 160.687 457.682 161.049L388.143 189.241L321.645 126.543C320.253 125.231 318.413 124.5 316.5 124.5H289.155L249.219 92.1707C247.379 90.681 244.943 90.1477 242.649 90.732L112.022 124L-23.382 49.4304Z" fill="#C17732" stroke="#C17732" stroke-width="15" stroke-linejoin="round"/>
<path d="M108 42L-32 110L-54 306H1435L1447 94L1371 16L1241.5 94L1193.5 70L1127.5 94L1065.5 70L999.5 94L953.5 56H413.5L319.5 110L279.5 70L185.5 94L108 42Z" fill="#C17732" fill-opacity="0.5"/>
<path d="M112.457 35.3568C110.094 33.7708 107.065 33.5603 104.505 34.8039L-35.4952 102.804C-37.9627 104.002 -39.6441 106.382 -39.9501 109.108L-61.9501 305.108C-62.2041 307.371 -61.4817 309.634 -59.964 311.332C-58.4463 313.03 -56.2771 314 -54 314H1435C1439.24 314 1442.75 310.688 1442.99 306.452L1454.99 94.4521C1455.11 92.2129 1454.29 90.0234 1452.73 88.4171L1376.73 10.4171C1374.14 7.75643 1370.05 7.2304 1366.87 9.14707L1241.14 84.8766L1197.08 62.8446C1195.11 61.8622 1192.83 61.7309 1190.77 62.4817L1127.59 85.4556L1068.39 62.5395C1066.58 61.8406 1064.59 61.8201 1062.77 62.4817L1001.07 84.9177L958.595 49.8323C957.161 48.6479 955.36 48 953.5 48H413.5C412.102 48 410.728 48.3666 409.515 49.0632L320.826 100.012L285.157 64.3431C283.16 62.346 280.258 61.55 277.521 62.2487L186.987 85.3637L112.457 35.3568Z" stroke="#C17732" stroke-opacity="0.5" stroke-width="16" stroke-linejoin="round"/>
<path d="M9.5 295.5L64 170L151.5 414.5H216.5L273 243L331.5 414.5L402.5 243L465.5 414.5H733V360.5H917V414.5H1042.5L1116 243L1193.5 414.5H1247.5L1321 222.5L1398.5 414.5L1471.5 145V414.5H1398.5H1247.5H1193.5H1042.5H917H733H465.5H331.5H216.5H151.5H-20L9.5 295.5Z" fill="#1D7874" fill-opacity="0.5"/>
<path d="M4.6469 294.297C4.71378 294.027 4.80305 293.763 4.91378 293.508L59.4138 168.008C60.2309 166.127 62.1146 164.935 64.165 165.003C66.2154 165.07 68.0164 166.384 68.7076 168.315L155.021 409.5H212.883L268.251 241.435C268.923 239.394 270.825 238.011 272.974 238C275.123 237.989 277.038 239.352 277.732 241.386L331.952 400.337L397.88 241.087C398.668 239.185 400.542 237.959 402.601 238.001C404.66 238.043 406.483 239.343 407.193 241.276L468.99 409.5H728V360.5C728 357.739 730.239 355.5 733 355.5H917C919.761 355.5 922 357.739 922 360.5V409.5H1039.2L1111.4 241.03C1112.19 239.208 1113.97 238.02 1115.95 238C1117.93 237.981 1119.74 239.134 1120.56 240.941L1196.73 409.5H1244.06L1316.33 220.712C1317.07 218.793 1318.9 217.519 1320.95 217.5C1323.01 217.482 1324.87 218.723 1325.64 220.628L1397.57 398.827L1466.67 143.693C1467.33 141.273 1469.67 139.713 1472.16 140.044C1474.64 140.374 1476.5 142.493 1476.5 145V414.5C1476.5 417.261 1474.26 419.5 1471.5 419.5H1398.52C1398.51 419.5 1398.49 419.5 1398.48 419.5H1247.5H1193.5H1042.5H917H733H465.5H331.517H331.5L4.6469 294.297ZM4.6469 294.297L-24.8531 413.297C-25.2232 414.79 -24.8856 416.37 -23.938 417.581C-22.9903 418.792 -21.5379 419.5 -20 419.5H151.5H216.5H331.485L4.6469 294.297Z" stroke="#1D7874" stroke-opacity="0.5" stroke-width="10" stroke-linejoin="round"/>
<path d="M28.7141 220.333C28.0078 218.336 26.1191 217 24.0003 217C21.8814 217 19.9926 218.335 19.2861 220.333L-38.6717 384.213L-52.6234 418.096C-53.2585 419.639 -53.0826 421.396 -52.1544 422.782C-51.2263 424.168 -49.6681 425 -48 425H94H150H221.5H279.5H393.5H491.5H751.5H877.5H1073.5H1159.5H1257.5H1335H1485C1486.69 425 1488.26 424.151 1489.18 422.742C1490.11 421.333 1490.26 419.554 1489.59 418.008L1403.59 220.008C1402.76 218.1 1400.83 216.905 1398.76 217.006C1396.68 217.107 1394.88 218.483 1394.24 220.462L1331.36 415H1261.05L1218.22 292.352C1217.54 290.404 1215.73 289.074 1213.67 289.003C1211.61 288.932 1209.72 290.134 1208.9 292.03L1156.2 415H1076.87L998.136 220.127C997.422 218.36 995.765 217.152 993.865 217.013C991.964 216.874 990.149 217.828 989.186 219.473L874.634 415H754.143L725.631 373.183C724.7 371.817 723.153 371 721.5 371H517.5C515.732 371 514.095 371.934 513.195 373.456L488.647 415H397.166L340.269 234.497C339.61 232.407 337.667 230.989 335.475 231C333.284 231.011 331.355 232.448 330.717 234.544L275.795 415H225.097L196.741 330.411C196.093 328.479 194.338 327.133 192.304 327.009C190.271 326.885 188.365 328.008 187.488 329.846L146.846 415H97.5356L28.7141 220.333Z" fill="#1D7874" stroke="#1D7874" stroke-width="10" stroke-linejoin="round"/>
<path d="M40 410L134 203L197 410H385L454 270L544 333L575.5 410H816L870.5 333H941.5L975 410H1027L1081.5 249L1152.5 410H1215.5L1278 236.5L1343 410H1215.5H1152.5H1027H975H816H575.5H385H197H40Z" fill="#1D7874" fill-opacity="0.25"/>
<path d="M35.4474 407.933C34.7446 409.48 34.8762 411.279 35.7966 412.708C36.7171 414.137 38.3003 415 40 415H197H385H575.5H816H975H1027H1152.5H1215.5H1343C1344.64 415 1346.18 414.196 1347.11 412.849C1348.04 411.501 1348.26 409.781 1347.68 408.246L1282.68 234.746C1281.95 232.783 1280.06 231.487 1277.97 231.5C1275.87 231.513 1274.01 232.833 1273.3 234.805L1211.99 405H1155.76L1086.07 246.982C1085.24 245.096 1083.34 243.913 1081.28 244.005C1079.22 244.097 1077.43 245.444 1076.76 247.397L1023.41 405H978.277L946.085 331.005C945.291 329.18 943.49 328 941.5 328H870.5C868.878 328 867.356 328.787 866.419 330.111L813.413 405H578.857L548.628 331.107C548.264 330.219 547.653 329.454 546.867 328.904L456.867 265.904C455.672 265.067 454.171 264.794 452.758 265.157C451.345 265.519 450.16 266.481 449.515 267.79L381.89 405H200.705L138.783 201.544C138.178 199.554 136.403 198.147 134.327 198.011C132.251 197.875 130.308 199.038 129.447 200.933L35.4474 407.933Z" stroke="#1D7874" stroke-opacity="0.25" stroke-width="10" stroke-linejoin="round"/>
</svg>
