<svg width="1440" height="427" viewBox="0 0 1440 427" fill="none" xmlns="http://www.w3.org/2000/svg">
<path d="M2 0L-76 133.5V288L1492 304V99L1386 11.5L1333 37L1268.5 67L1176.5 87.5L1066 37C1036.83 47 974.8 67 960 67C945.2 67 869.5 47 833.5 37L582.5 120L419 87.5L343 67L248.5 11.5L170 67L94 120L2 0Z" fill="#C17732" fill-opacity="0.5"/>
<path d="M87.5 36.4685L-43.5 224.577V420H1452.5V61.027L1366.5 157.694L1248.5 92.3784L1163 14L1030 121.64L920.5 184.342L828 157.694L705.5 61.027L568.5 157.694L504 121.64L414 157.694L330 92.3784L257 184.342L171.5 137.315L87.5 36.4685Z" fill="#C17732" stroke="#C17732" stroke-width="13"/>
<rect x="-17.6084" y="195.458" width="1464.11" height="43.6683" transform="rotate(-0.017906 -17.6084 195.458)" fill="#352208" fill-opacity="0.25"/>
<rect x="-17.8423" y="239.44" width="1462.34" height="52.9001" transform="rotate(-0.017906 -17.8423 239.44)" fill="#352208" fill-opacity="0.5"/>
<rect x="-1.92773" y="287.453" width="1448.43" height="123.002" transform="rotate(-0.017906 -1.92773 287.453)" fill="#352208"/>
<path d="M204.208 381.7C169.84 358.533 71.5881 326.1 -2 381.7V420H1492V381.7C1450.05 347.2 1363.12 344.7 1319.15 381.7C1275.18 418.7 1194.31 401.2 1156.91 381.7C1119.51 362.2 1064.93 355.7 1007.81 381.7C950.703 407.7 915.829 405.2 859.223 381.7C802.617 358.2 747.527 359.7 694.964 381.7C642.401 403.7 574.17 411.7 536.77 381.7C499.369 351.7 411.933 349.2 359.37 381.7C317.32 407.7 247.674 410.999 204.208 381.7Z" fill="#1D7874" stroke="#1D7874" stroke-width="13"/>
<path d="M139 371.7C105 348.533 7.8 316.1 -65 371.7V410H1413V371.7C1371.5 337.2 1285.5 334.7 1242 371.7C1198.5 408.7 1118.5 391.2 1081.5 371.7C1044.5 352.2 990.5 345.7 934 371.7C877.5 397.7 843 395.2 787 371.7C731 348.2 676.5 349.7 624.5 371.7C572.5 393.7 505 401.7 468 371.7C431 341.7 344.5 339.2 292.5 371.7C250.9 397.7 182 400.999 139 371.7Z" fill="#1D7874" fill-opacity="0.5"/>
<path d="M-67.1244 368.918L-68.5 369.969V371.7V410V413.5H-65H1413H1416.5V410V371.7V370.058L1415.24 369.008C1393.69 351.091 1360.94 341.705 1328.28 341.387C1295.62 341.07 1262.32 349.817 1239.73 369.034C1218.99 386.676 1189.22 391.554 1159.57 389.396C1129.98 387.243 1101.2 378.124 1083.13 368.603C1045.19 348.609 990.051 342.054 932.537 368.52C904.574 381.388 882.355 387.065 860.361 386.762C838.329 386.459 816.188 380.152 788.354 368.472C731.459 344.597 675.979 346.12 623.136 368.476C597.46 379.339 568.005 386.72 540.5 387.702C512.935 388.686 487.787 383.237 470.204 368.981C450.839 353.279 419.051 345.079 385.908 344.762C352.684 344.445 317.355 352.038 290.645 368.732C270.476 381.337 243.5 388.533 216.223 388.937C188.944 389.342 161.729 382.951 140.971 368.807C123.471 356.884 90.1177 342.795 51.9247 338.682C13.6703 334.563 -29.811 340.42 -67.1244 368.918Z" stroke="#1D7874" stroke-opacity="0.5" stroke-width="7"/>
<path d="M335.5 361.7C301.5 338.533 204.3 306.1 131.5 361.7V400H1609.5V361.7C1568 327.2 1482 324.7 1438.5 361.7C1395 398.7 1315 381.2 1278 361.7C1241 342.2 1187 335.7 1130.5 361.7C1074 387.7 1039.5 385.2 983.5 361.7C927.5 338.2 873 339.7 821 361.7C769 383.7 701.5 391.7 664.5 361.7C627.5 331.7 541 329.2 489 361.7C447.4 387.7 378.5 390.999 335.5 361.7Z" fill="#1D7874" fill-opacity="0.25"/>
<path d="M131.197 361.302L131 361.452V361.7V400V400.5H131.5H1609.5H1610V400V361.7V361.465L1609.82 361.315C1588.96 343.97 1556.96 334.7 1524.75 334.387C1492.55 334.074 1460.05 342.716 1438.18 361.319C1416.57 379.696 1385.85 384.572 1355.85 382.388C1325.85 380.206 1296.67 370.975 1278.23 361.257C1241.1 341.687 1186.94 335.179 1130.29 361.245C1102.08 374.227 1079.41 380.073 1056.82 379.762C1034.23 379.451 1011.67 372.979 983.693 361.239C927.566 337.685 872.926 339.188 820.805 361.239C794.852 372.22 765.036 379.702 737.107 380.7C709.169 381.698 683.184 376.205 664.815 361.311C646.191 346.211 615.186 338.075 582.38 337.762C549.562 337.449 514.836 344.962 488.735 361.276C468.025 374.219 440.493 381.526 412.768 381.937C385.042 382.348 357.176 375.864 335.782 361.286C318.71 349.654 285.831 335.728 248.104 331.665C210.367 327.602 167.727 333.403 131.197 361.302Z" stroke="#1D7874" stroke-opacity="0.25"/>
</svg>
