<svg width="1440" height="815" viewBox="0 0 1440 815" fill="none" xmlns="http://www.w3.org/2000/svg">
<g clip-path="url(#clip0_127_316)">
<rect width="1440" height="815" rx="10" fill="#F0E6D2"/>
<path d="M1115.29 576.628C1130.35 593.583 1185.68 571.974 1207.13 561.213C1201.83 537.573 1189.26 490.104 1167.78 488.333C1149.26 486.805 1100.31 497.679 1077.55 509.443C1081.76 525.326 1098.6 557.831 1115.29 576.628Z" fill="#C17732" fill-opacity="0.5"/>
<path d="M1207.54 692.224C1227.98 712.606 1287.58 681.609 1310.24 666.583C1299.8 637.108 1276.58 578.053 1251.57 577.264C1230 576.585 1175.75 593.605 1151.76 609.984C1159.53 629.745 1184.88 669.629 1207.54 692.224Z" fill="#C17732" fill-opacity="0.5"/>
<path d="M1243.45 560.213C1257.78 585.051 1322.47 570.661 1347.89 562.081C1345.38 531.088 1338.19 468.403 1314.53 461.195C1294.13 454.981 1238.08 457.331 1211.06 466.871C1213.47 487.847 1227.56 532.677 1243.45 560.213Z" fill="#C17732" fill-opacity="0.5"/>
<path d="M1190.08 352.333C1193.23 373.563 1249.57 386.012 1272.69 388.975C1281.01 367.7 1296.14 323.947 1279.69 311.175C1265.5 300.163 1220.05 282.707 1195.34 279.832C1190.28 294.475 1186.58 328.797 1190.08 352.333Z" fill="#C17732" fill-opacity="0.5"/>
<path d="M1314.16 533.932C1323.28 569.648 1410.26 575.15 1445.5 573.71C1453.56 534.662 1467.18 454.921 1439.89 437.56C1416.36 422.59 1344.66 405.369 1307.05 407.414C1302.5 434.1 1304.06 494.335 1314.16 533.932Z" fill="#F0E6D2"/>
<path d="M1314.16 533.932C1323.28 569.648 1410.26 575.15 1445.5 573.71C1453.56 534.662 1467.18 454.921 1439.89 437.56C1416.36 422.59 1344.66 405.369 1307.05 407.414C1302.5 434.1 1304.06 494.335 1314.16 533.932Z" fill="#C17732" fill-opacity="0.75"/>
<path d="M1346.29 759.149C1381.2 770.974 1433.22 701.049 1451.22 670.718C1422.88 642.673 1363.45 587.791 1334.02 601.21C1308.64 612.78 1255.13 663.506 1236.34 696.155C1256.23 714.516 1307.58 746.04 1346.29 759.149Z" fill="#F0E6D2"/>
<path d="M1346.29 759.149C1381.2 770.974 1433.22 701.049 1451.22 670.718C1422.88 642.673 1363.45 587.791 1334.02 601.21C1308.64 612.78 1255.13 663.506 1236.34 696.155C1256.23 714.516 1307.58 746.04 1346.29 759.149Z" fill="#C17732" fill-opacity="0.75"/>
<path d="M1326.1 690.625C1355.78 727.403 1459.37 687.417 1499.38 666.938C1487.79 617.11 1460.83 516.874 1419.95 511.192C1384.7 506.292 1292.51 524.463 1250.09 546.913C1259.12 580.453 1293.19 649.85 1326.1 690.625Z" fill="#C17732"/>
<path d="M1356.8 462.547C1353.42 492.449 1419.06 522.672 1446.72 532.127C1464.36 504.833 1498.17 448.243 1482.14 426.864C1468.31 408.431 1417.91 373.865 1388.23 364.161C1376.92 383.101 1360.54 429.396 1356.8 462.547Z" fill="#C17732" fill-opacity="0.75"/>
<path d="M1280.86 231.351C1276.91 249.726 1317.28 274.466 1334.49 282.842C1347.45 267.37 1372.55 235.045 1363.52 220.259C1355.74 207.511 1325.42 181.42 1306.93 172.708C1298.53 183.528 1285.25 210.98 1280.86 231.351Z" fill="#C17732" fill-opacity="0.75"/>
<path d="M1078.74 395.486C1084.61 413.341 1131.95 414.298 1151.03 412.833C1154.4 392.934 1159.73 352.358 1144.47 344.157C1131.31 337.086 1091.96 329.887 1071.61 331.709C1069.83 345.287 1072.23 375.69 1078.74 395.486Z" fill="#C17732" fill-opacity="0.75"/>
<path d="M1167.6 185.093C1168.65 197.248 1197.14 204.019 1208.88 205.568C1213.71 193.311 1222.64 168.118 1214.56 160.901C1207.6 154.678 1184.82 144.964 1172.25 143.477C1169.27 151.908 1166.45 171.617 1167.6 185.093Z" fill="#C17732" fill-opacity="0.5"/>
<path d="M1384.86 165.102C1376.62 174.1 1390.94 199.648 1397.75 209.339C1410.04 204.592 1434.62 194.094 1434.46 183.265C1434.32 173.928 1426.04 150.587 1418.62 140.335C1410.4 143.85 1393.99 155.126 1384.86 165.102Z" fill="#C17732" fill-opacity="0.75"/>
<path d="M993.879 242.75C998.7 253.957 1027.87 251.399 1039.51 249.165C1040.23 236.01 1040.75 209.29 1030.81 204.986C1022.24 201.276 997.559 199.241 985.165 201.792C984.993 210.734 988.534 230.326 993.879 242.75Z" fill="#C17732" fill-opacity="0.75"/>
<path d="M904.084 631.12C916.282 631.328 925.933 603.679 928.675 592.153C916.977 586.094 892.829 574.641 884.823 581.935C877.921 588.224 865.927 609.894 863.162 622.242C871.244 626.072 890.561 630.89 904.084 631.12Z" fill="#C17732" fill-opacity="0.75"/>
<path d="M1042.57 677.43C1058.43 687.509 1095.63 658.216 1109.46 644.975C1099.44 627.457 1077.81 592.711 1060.82 596.052C1046.16 598.932 1011.18 618.332 996.597 632.654C1003.84 644.28 1024.98 666.257 1042.57 677.43Z" fill="#C17732" fill-opacity="0.75"/>
<path d="M1422.24 315.536C1413.67 332.262 1446.27 366.605 1460.72 379.15C1477.24 367.557 1509.85 342.826 1504.96 326.209C1500.74 311.882 1478.2 278.832 1462.59 265.634C1451.69 273.913 1431.75 296.993 1422.24 315.536Z" fill="#C17732" fill-opacity="0.75"/>
<path d="M323.963 216.01C308.906 199.055 253.579 220.663 232.129 231.425C237.422 255.065 249.996 302.534 271.477 304.305C289.997 305.832 338.948 294.959 361.707 283.195C357.495 267.311 340.657 234.807 323.963 216.01Z" fill="#1D7874" fill-opacity="0.5"/>
<path d="M231.716 100.413C211.28 80.0318 151.68 111.028 129.014 126.054C139.461 155.529 162.675 214.585 187.69 215.373C209.258 216.053 263.511 199.033 287.498 182.653C279.724 162.893 254.372 123.009 231.716 100.413Z" fill="#1D7874" fill-opacity="0.5"/>
<path d="M195.807 232.424C181.474 207.587 116.789 221.976 91.3687 230.557C93.8733 261.55 101.068 324.235 124.727 331.442C145.124 337.656 201.173 335.307 228.195 325.767C225.782 304.791 211.696 259.961 195.807 232.424Z" fill="#1D7874" fill-opacity="0.5"/>
<path d="M249.181 440.304C246.027 419.075 189.684 406.626 166.569 403.662C158.247 424.938 143.114 468.691 159.569 481.463C173.757 492.475 219.208 509.93 243.919 512.805C248.979 498.162 252.677 463.841 249.181 440.304Z" fill="#1D7874" fill-opacity="0.5"/>
<path d="M125.092 258.705C115.977 222.989 28.9998 217.488 -6.2407 218.928C-14.3066 257.976 -27.9286 337.716 -0.636577 355.078C22.8941 370.047 94.5919 387.269 132.205 385.224C136.756 358.538 135.198 298.302 125.092 258.705Z" fill="#F0E6D2"/>
<path d="M125.092 258.705C115.977 222.989 28.9998 217.488 -6.2407 218.928C-14.3066 257.976 -27.9286 337.716 -0.636577 355.078C22.8941 370.047 94.5919 387.269 132.205 385.224C136.756 358.538 135.198 298.302 125.092 258.705Z" fill="#1D7874" fill-opacity="0.75"/>
<path d="M92.9649 33.4883C58.0518 21.6639 6.03388 91.5884 -11.9664 121.919C16.3755 149.964 75.8065 204.847 105.238 191.427C130.613 179.858 184.13 129.132 202.916 96.4822C183.023 78.1218 131.671 46.5975 92.9649 33.4883Z" fill="#F0E6D2"/>
<path d="M92.9649 33.4883C58.0518 21.6639 6.03388 91.5884 -11.9664 121.919C16.3755 149.964 75.8065 204.847 105.238 191.427C130.613 179.858 184.13 129.132 202.916 96.4822C183.023 78.1218 131.671 46.5975 92.9649 33.4883Z" fill="#1D7874" fill-opacity="0.75"/>
<path d="M113.155 102.013C83.4714 65.2342 -20.1175 105.221 -60.123 125.699C-48.5351 175.528 -21.574 275.764 19.3078 281.446C54.5553 286.345 146.744 268.175 189.17 245.725C180.138 212.185 146.063 142.787 113.155 102.013Z" fill="#1D7874"/>
<path d="M82.4608 330.091C85.8395 300.188 20.1987 269.965 -7.46785 260.511C-25.1027 287.805 -58.9121 344.395 -42.8794 365.774C-29.0563 384.207 21.3497 418.773 51.027 428.477C62.3357 409.536 78.7149 363.242 82.4608 330.091Z" fill="#1D7874" fill-opacity="0.75"/>
<path d="M158.392 561.287C162.347 542.912 121.976 518.172 104.764 509.795C91.806 525.267 66.7083 557.593 75.7339 572.378C83.5157 585.126 113.839 611.218 132.328 619.93C140.724 609.11 154.008 581.658 158.392 561.287Z" fill="#1D7874" fill-opacity="0.75"/>
<path d="M360.519 397.152C354.649 379.296 307.31 378.339 288.225 379.805C284.858 399.704 279.528 440.28 294.786 448.481C307.942 455.551 347.292 462.751 367.649 460.929C369.429 447.35 367.026 416.947 360.519 397.152Z" fill="#1D7874" fill-opacity="0.75"/>
<path d="M271.651 607.545C270.61 595.39 242.119 588.619 230.373 587.07C225.542 599.327 216.62 624.52 224.695 631.737C231.657 637.96 254.441 647.674 267.006 649.161C269.989 640.729 272.806 621.021 271.651 607.545Z" fill="#1D7874" fill-opacity="0.5"/>
<path d="M54.3974 627.536C62.635 618.537 48.3211 592.99 41.505 583.299C29.2156 588.045 4.63793 598.544 4.79654 609.373C4.93329 618.709 13.2169 642.051 20.6328 652.303C28.8565 648.788 45.2648 637.512 54.3974 627.536Z" fill="#1D7874" fill-opacity="0.75"/>
<path d="M445.378 549.888C440.557 538.681 411.384 541.238 399.749 543.473C399.029 556.627 398.506 583.348 408.444 587.651C417.013 591.361 441.697 593.396 454.091 590.846C454.263 581.904 450.722 562.312 445.378 549.888Z" fill="#1D7874" fill-opacity="0.75"/>
<path d="M535.172 161.517C522.974 161.31 513.323 188.958 510.581 200.485C522.279 206.544 546.427 217.996 554.433 210.702C561.335 204.413 573.329 182.743 576.094 170.396C568.012 166.566 548.695 161.747 535.172 161.517Z" fill="#1D7874" fill-opacity="0.75"/>
<path d="M396.686 115.207C380.821 105.129 343.621 134.421 329.798 147.662C339.82 165.18 361.442 199.927 378.439 196.586C393.094 193.705 428.079 174.306 442.659 159.983C435.42 148.358 414.275 126.381 396.686 115.207Z" fill="#1D7874" fill-opacity="0.75"/>
<path d="M17.0119 477.101C25.5858 460.375 -7.0094 426.032 -21.4677 413.488C-37.9878 425.081 -70.5946 449.812 -65.7018 466.429C-61.4833 480.756 -38.943 513.805 -23.3379 527.004C-12.4289 518.725 7.50638 495.645 17.0119 477.101Z" fill="#1D7874" fill-opacity="0.75"/>
<mask id="path-34-outside-1_127_316" maskUnits="userSpaceOnUse" x="1331" y="43" width="70" height="20" fill="black">
<rect fill="white" x="1331" y="43" width="70" height="20"/>
<path d="M1332.68 61V45.016H1336.16V57.976H1341.92V61H1332.68ZM1350.94 61.312C1349.36 61.312 1347.97 60.968 1346.77 60.28C1345.58 59.592 1344.66 58.632 1343.98 57.4C1343.33 56.152 1343 54.712 1343 53.08C1343 51.416 1343.33 49.968 1343.98 48.736C1344.66 47.504 1345.58 46.544 1346.77 45.856C1347.97 45.168 1349.36 44.824 1350.94 44.824C1352.53 44.824 1353.91 45.168 1355.1 45.856C1356.3 46.528 1357.22 47.48 1357.88 48.712C1358.54 49.928 1358.86 51.352 1358.86 52.984C1358.86 54.648 1358.54 56.104 1357.88 57.352C1357.22 58.6 1356.3 59.576 1355.1 60.28C1353.91 60.968 1352.53 61.312 1350.94 61.312ZM1350.94 58.264C1352.27 58.264 1353.33 57.792 1354.11 56.848C1354.9 55.904 1355.29 54.648 1355.29 53.08C1355.29 52.04 1355.1 51.128 1354.74 50.344C1354.38 49.56 1353.88 48.952 1353.22 48.52C1352.57 48.088 1351.81 47.88 1350.94 47.896C1350.08 47.88 1349.32 48.088 1348.66 48.52C1348.02 48.952 1347.52 49.56 1347.15 50.344C1346.78 51.128 1346.6 52.04 1346.6 53.08C1346.6 54.12 1346.78 55.032 1347.13 55.816C1347.5 56.584 1348.01 57.184 1348.66 57.616C1349.32 58.048 1350.08 58.264 1350.94 58.264ZM1369.85 61.36C1368.06 61.36 1366.52 61.048 1365.24 60.424C1363.96 59.784 1362.98 58.88 1362.29 57.712C1361.6 56.528 1361.26 55.112 1361.26 53.464C1361.26 51.72 1361.62 50.2 1362.34 48.904C1363.08 47.608 1364.1 46.6 1365.41 45.88C1366.72 45.16 1368.25 44.8 1370 44.8C1370.99 44.8 1371.92 44.912 1372.8 45.136C1373.7 45.36 1374.49 45.68 1375.18 46.096L1374.34 48.976C1373.72 48.592 1373.02 48.296 1372.25 48.088C1371.5 47.864 1370.75 47.752 1370 47.752C1368.94 47.752 1368.01 47.984 1367.21 48.448C1366.41 48.896 1365.79 49.528 1365.34 50.344C1364.89 51.16 1364.67 52.12 1364.67 53.224C1364.67 54.824 1365.15 56.088 1366.11 57.016C1367.08 57.928 1368.41 58.384 1370.09 58.384C1370.76 58.384 1371.39 58.336 1371.96 58.24V54.928H1369.95V52.12H1375.16V60.424C1373.51 61.048 1371.74 61.36 1369.85 61.36ZM1378.58 61V45.016H1382.06V61H1378.58ZM1385.6 61V45.016H1389.68L1396.31 56.224V45.016H1399.5V61H1395.47L1388.79 49.72V61H1385.6Z"/>
</mask>
<path d="M1332.68 61V45.016H1336.16V57.976H1341.92V61H1332.68ZM1350.94 61.312C1349.36 61.312 1347.97 60.968 1346.77 60.28C1345.58 59.592 1344.66 58.632 1343.98 57.4C1343.33 56.152 1343 54.712 1343 53.08C1343 51.416 1343.33 49.968 1343.98 48.736C1344.66 47.504 1345.58 46.544 1346.77 45.856C1347.97 45.168 1349.36 44.824 1350.94 44.824C1352.53 44.824 1353.91 45.168 1355.1 45.856C1356.3 46.528 1357.22 47.48 1357.88 48.712C1358.54 49.928 1358.86 51.352 1358.86 52.984C1358.86 54.648 1358.54 56.104 1357.88 57.352C1357.22 58.6 1356.3 59.576 1355.1 60.28C1353.91 60.968 1352.53 61.312 1350.94 61.312ZM1350.94 58.264C1352.27 58.264 1353.33 57.792 1354.11 56.848C1354.9 55.904 1355.29 54.648 1355.29 53.08C1355.29 52.04 1355.1 51.128 1354.74 50.344C1354.38 49.56 1353.88 48.952 1353.22 48.52C1352.57 48.088 1351.81 47.88 1350.94 47.896C1350.08 47.88 1349.32 48.088 1348.66 48.52C1348.02 48.952 1347.52 49.56 1347.15 50.344C1346.78 51.128 1346.6 52.04 1346.6 53.08C1346.6 54.12 1346.78 55.032 1347.13 55.816C1347.5 56.584 1348.01 57.184 1348.66 57.616C1349.32 58.048 1350.08 58.264 1350.94 58.264ZM1369.85 61.36C1368.06 61.36 1366.52 61.048 1365.24 60.424C1363.96 59.784 1362.98 58.88 1362.29 57.712C1361.6 56.528 1361.26 55.112 1361.26 53.464C1361.26 51.72 1361.62 50.2 1362.34 48.904C1363.08 47.608 1364.1 46.6 1365.41 45.88C1366.72 45.16 1368.25 44.8 1370 44.8C1370.99 44.8 1371.92 44.912 1372.8 45.136C1373.7 45.36 1374.49 45.68 1375.18 46.096L1374.34 48.976C1373.72 48.592 1373.02 48.296 1372.25 48.088C1371.5 47.864 1370.75 47.752 1370 47.752C1368.94 47.752 1368.01 47.984 1367.21 48.448C1366.41 48.896 1365.79 49.528 1365.34 50.344C1364.89 51.16 1364.67 52.12 1364.67 53.224C1364.67 54.824 1365.15 56.088 1366.11 57.016C1367.08 57.928 1368.41 58.384 1370.09 58.384C1370.76 58.384 1371.39 58.336 1371.96 58.24V54.928H1369.95V52.12H1375.16V60.424C1373.51 61.048 1371.74 61.36 1369.85 61.36ZM1378.58 61V45.016H1382.06V61H1378.58ZM1385.6 61V45.016H1389.68L1396.31 56.224V45.016H1399.5V61H1395.47L1388.79 49.72V61H1385.6Z" fill="#F0E6D2"/>
<path d="M1332.68 61H1331.68V62H1332.68V61ZM1332.68 45.016V44.016H1331.68V45.016H1332.68ZM1336.16 45.016H1337.16V44.016H1336.16V45.016ZM1336.16 57.976H1335.16V58.976H1336.16V57.976ZM1341.92 57.976H1342.92V56.976H1341.92V57.976ZM1341.92 61V62H1342.92V61H1341.92ZM1333.68 61V45.016H1331.68V61H1333.68ZM1332.68 46.016H1336.16V44.016H1332.68V46.016ZM1335.16 45.016V57.976H1337.16V45.016H1335.16ZM1336.16 58.976H1341.92V56.976H1336.16V58.976ZM1340.92 57.976V61H1342.92V57.976H1340.92ZM1341.92 60H1332.68V62H1341.92V60ZM1346.77 60.28L1346.26 61.1446L1346.27 61.1475L1346.77 60.28ZM1343.98 57.4L1343.1 57.8653L1343.1 57.8721L1343.11 57.8789L1343.98 57.4ZM1343.98 48.736L1343.11 48.2571L1343.1 48.266L1343.98 48.736ZM1346.77 45.856L1346.27 44.9885L1346.26 44.9914L1346.77 45.856ZM1355.1 45.856L1354.59 46.7206L1354.6 46.7246L1354.61 46.7285L1355.1 45.856ZM1357.88 48.712L1357 49.182L1357 49.1868L1357.88 48.712ZM1357.88 57.352L1356.99 56.8867L1357.88 57.352ZM1355.1 60.28L1355.6 61.1446L1355.6 61.1425L1355.1 60.28ZM1354.11 56.848L1353.34 56.2091L1354.11 56.848ZM1354.74 50.344L1353.82 50.7536L1353.83 50.7613L1353.83 50.7689L1354.74 50.344ZM1350.94 47.896L1350.92 48.8958L1350.94 48.8962L1350.96 48.8958L1350.94 47.896ZM1348.66 48.52L1348.11 47.6848L1348.1 47.6912L1348.66 48.52ZM1347.15 50.344L1346.25 49.9191L1347.15 50.344ZM1347.13 55.816L1346.21 56.2256L1346.22 56.2369L1346.23 56.2481L1347.13 55.816ZM1348.66 57.616L1349.21 56.7808H1349.21L1348.66 57.616ZM1350.94 60.312C1349.51 60.312 1348.29 60.0017 1347.26 59.4125L1346.27 61.1475C1347.64 61.9343 1349.21 62.312 1350.94 62.312V60.312ZM1347.27 59.4154C1346.25 58.8216 1345.45 57.9968 1344.86 56.9211L1343.11 57.8789C1343.86 59.2672 1344.92 60.3624 1346.26 61.1446L1347.27 59.4154ZM1344.87 56.9347C1344.3 55.8513 1344 54.5755 1344 53.08H1342C1342 54.8485 1342.36 56.4527 1343.1 57.8653L1344.87 56.9347ZM1344 53.08C1344 51.5485 1344.3 50.2679 1344.87 49.206L1343.1 48.266C1342.35 49.6681 1342 51.2835 1342 53.08H1344ZM1344.86 49.2149C1345.45 48.1392 1346.25 47.3144 1347.27 46.7206L1346.26 44.9914C1344.92 45.7736 1343.86 46.8688 1343.11 48.2571L1344.86 49.2149ZM1347.26 46.7235C1348.29 46.1343 1349.51 45.824 1350.94 45.824V43.824C1349.21 43.824 1347.64 44.2017 1346.27 44.9885L1347.26 46.7235ZM1350.94 45.824C1352.38 45.824 1353.58 46.1344 1354.59 46.7206L1355.6 44.9914C1354.24 44.2016 1352.68 43.824 1350.94 43.824V45.824ZM1354.61 46.7285C1355.64 47.3054 1356.43 48.1165 1357 49.182L1358.76 48.242C1358.02 46.8435 1356.95 45.7506 1355.58 44.9835L1354.61 46.7285ZM1357 49.1868C1357.56 50.2326 1357.86 51.4877 1357.86 52.984H1359.86C1359.86 51.2163 1359.51 49.6234 1358.76 48.2372L1357 49.1868ZM1357.86 52.984C1357.86 54.5151 1357.56 55.806 1356.99 56.8867L1358.76 57.8173C1359.51 56.402 1359.86 54.7809 1359.86 52.984H1357.86ZM1356.99 56.8867C1356.42 57.9719 1355.63 58.8092 1354.59 59.4175L1355.6 61.1425C1356.96 60.3428 1358.02 59.2281 1358.76 57.8173L1356.99 56.8867ZM1354.59 59.4154C1353.58 60.0016 1352.38 60.312 1350.94 60.312V62.312C1352.68 62.312 1354.24 61.9344 1355.6 61.1446L1354.59 59.4154ZM1350.94 59.264C1352.54 59.264 1353.89 58.6802 1354.88 57.4869L1353.34 56.2091C1352.76 56.9038 1352 57.264 1350.94 57.264V59.264ZM1354.88 57.4869C1355.85 56.3183 1356.29 54.8152 1356.29 53.08H1354.29C1354.29 54.4808 1353.94 55.4897 1353.34 56.2091L1354.88 57.4869ZM1356.29 53.08C1356.29 51.9222 1356.08 50.8601 1355.64 49.9191L1353.83 50.7689C1354.12 51.3959 1354.29 52.1578 1354.29 53.08H1356.29ZM1355.65 49.9344C1355.23 48.9939 1354.6 48.2311 1353.77 47.6848L1352.67 49.3552C1353.16 49.6729 1353.54 50.1261 1353.82 50.7536L1355.65 49.9344ZM1353.77 47.6848C1352.93 47.1308 1351.97 46.8768 1350.92 46.8962L1350.96 48.8958C1351.64 48.8832 1352.2 49.0452 1352.67 49.3552L1353.77 47.6848ZM1350.96 46.8962C1349.92 46.8768 1348.95 47.1308 1348.11 47.6848L1349.21 49.3552C1349.68 49.0452 1350.24 48.8832 1350.92 48.8958L1350.96 46.8962ZM1348.1 47.6912C1347.3 48.236 1346.68 48.9921 1346.25 49.9191L1348.06 50.7689C1348.36 50.1279 1348.75 49.668 1349.22 49.3488L1348.1 47.6912ZM1346.25 49.9191C1345.8 50.8601 1345.6 51.9222 1345.6 53.08H1347.6C1347.6 52.1578 1347.76 51.3959 1348.06 50.7689L1346.25 49.9191ZM1345.6 53.08C1345.6 54.2321 1345.79 55.2887 1346.21 56.2256L1348.04 55.4064C1347.76 54.7753 1347.6 54.0079 1347.6 53.08H1345.6ZM1346.23 56.2481C1346.66 57.1657 1347.29 57.9109 1348.11 58.4512L1349.21 56.7808C1348.72 56.4571 1348.33 56.0023 1348.03 55.3839L1346.23 56.2481ZM1348.11 58.4512C1348.95 59.0014 1349.9 59.264 1350.94 59.264V57.264C1350.25 57.264 1349.69 57.0946 1349.21 56.7808L1348.11 58.4512ZM1365.24 60.424L1364.8 61.3185L1364.81 61.3229L1365.24 60.424ZM1362.29 57.712L1361.43 58.2144L1361.43 58.2195L1362.29 57.712ZM1362.34 48.904L1361.47 48.4102L1361.47 48.4184L1362.34 48.904ZM1365.41 45.88L1364.93 45.0033V45.0033L1365.41 45.88ZM1372.8 45.136L1372.56 46.1051L1372.56 46.1061L1372.8 45.136ZM1375.18 46.096L1376.14 46.376L1376.35 45.638L1375.7 45.2403L1375.18 46.096ZM1374.34 48.976L1373.82 49.8277L1374.93 50.515L1375.3 49.256L1374.34 48.976ZM1372.25 48.088L1371.97 49.0464L1371.98 49.05L1371.99 49.0532L1372.25 48.088ZM1367.21 48.448L1367.7 49.3205L1367.71 49.3168L1367.71 49.313L1367.21 48.448ZM1365.34 50.344L1364.46 49.8627L1365.34 50.344ZM1366.11 57.016L1365.41 57.735L1365.42 57.7409L1365.42 57.7467L1366.11 57.016ZM1371.96 58.24L1372.13 59.2264L1372.96 59.0871V58.24H1371.96ZM1371.96 54.928H1372.96V53.928H1371.96V54.928ZM1369.95 54.928H1368.95V55.928H1369.95V54.928ZM1369.95 52.12V51.12H1368.95V52.12H1369.95ZM1375.16 52.12H1376.16V51.12H1375.16V52.12ZM1375.16 60.424L1375.51 61.3592L1376.16 61.1146V60.424H1375.16ZM1369.85 60.36C1368.17 60.36 1366.79 60.0677 1365.68 59.5251L1364.81 61.3229C1366.25 62.0283 1367.95 62.36 1369.85 62.36V60.36ZM1365.69 59.5296C1364.57 58.9708 1363.74 58.1968 1363.15 57.2045L1361.43 58.2195C1362.22 59.5632 1363.35 60.5972 1364.8 61.3184L1365.69 59.5296ZM1363.16 57.2096C1362.57 56.2065 1362.26 54.9714 1362.26 53.464H1360.26C1360.26 55.2526 1360.63 56.8495 1361.43 58.2144L1363.16 57.2096ZM1362.26 53.464C1362.26 51.8599 1362.59 50.5128 1363.21 49.3896L1361.47 48.4184C1360.65 49.8872 1360.26 51.5801 1360.26 53.464H1362.26ZM1363.21 49.3978C1363.85 48.2637 1364.74 47.3879 1365.89 46.7567L1364.93 45.0033C1363.46 45.8121 1362.3 46.9523 1361.47 48.4102L1363.21 49.3978ZM1365.89 46.7567C1367.03 46.13 1368.39 45.8 1370 45.8V43.8C1368.11 43.8 1366.41 44.19 1364.93 45.0033L1365.89 46.7567ZM1370 45.8C1370.91 45.8 1371.76 45.9034 1372.56 46.1051L1373.05 44.1669C1372.08 43.9206 1371.06 43.8 1370 43.8V45.8ZM1372.56 46.1061C1373.37 46.3095 1374.07 46.5944 1374.66 46.9517L1375.7 45.2403C1374.91 44.7656 1374.02 44.4105 1373.05 44.1659L1372.56 46.1061ZM1374.22 45.816L1373.38 48.696L1375.3 49.256L1376.14 46.376L1374.22 45.816ZM1374.86 48.1243C1374.15 47.686 1373.37 47.3537 1372.51 47.1228L1371.99 49.0532C1372.67 49.2383 1373.28 49.498 1373.82 49.8277L1374.86 48.1243ZM1372.54 47.1296C1371.7 46.8792 1370.85 46.752 1370 46.752V48.752C1370.65 48.752 1371.3 48.8488 1371.97 49.0464L1372.54 47.1296ZM1370 46.752C1368.79 46.752 1367.68 47.0186 1366.71 47.583L1367.71 49.313C1368.34 48.9494 1369.09 48.752 1370 48.752V46.752ZM1366.72 47.5755C1365.76 48.1165 1365 48.8852 1364.46 49.8627L1366.22 50.8253C1366.58 50.1708 1367.07 49.6755 1367.7 49.3205L1366.72 47.5755ZM1364.46 49.8627C1363.92 50.8514 1363.67 51.9831 1363.67 53.224H1365.67C1365.67 52.2569 1365.86 51.4686 1366.22 50.8253L1364.46 49.8627ZM1363.67 53.224C1363.67 55.0372 1364.22 56.5818 1365.41 57.735L1366.8 56.297C1366.08 55.5942 1365.67 54.6108 1365.67 53.224H1363.67ZM1365.42 57.7467C1366.63 58.8732 1368.23 59.384 1370.09 59.384V57.384C1368.6 57.384 1367.54 56.9828 1366.79 56.2853L1365.42 57.7467ZM1370.09 59.384C1370.81 59.384 1371.49 59.3327 1372.13 59.2264L1371.8 57.2536C1371.29 57.3393 1370.72 57.384 1370.09 57.384V59.384ZM1372.96 58.24V54.928H1370.96V58.24H1372.96ZM1371.96 53.928H1369.95V55.928H1371.96V53.928ZM1370.95 54.928V52.12H1368.95V54.928H1370.95ZM1369.95 53.12H1375.16V51.12H1369.95V53.12ZM1374.16 52.12V60.424H1376.16V52.12H1374.16ZM1374.8 59.4888C1373.27 60.067 1371.63 60.36 1369.85 60.36V62.36C1371.85 62.36 1373.74 62.029 1375.51 61.3592L1374.8 59.4888ZM1378.58 61H1377.58V62H1378.58V61ZM1378.58 45.016V44.016H1377.58V45.016H1378.58ZM1382.06 45.016H1383.06V44.016H1382.06V45.016ZM1382.06 61V62H1383.06V61H1382.06ZM1379.58 61V45.016H1377.58V61H1379.58ZM1378.58 46.016H1382.06V44.016H1378.58V46.016ZM1381.06 45.016V61H1383.06V45.016H1381.06ZM1382.06 60H1378.58V62H1382.06V60ZM1385.6 61H1384.6V62H1385.6V61ZM1385.6 45.016V44.016H1384.6V45.016H1385.6ZM1389.68 45.016L1390.54 44.5072L1390.25 44.016H1389.68V45.016ZM1396.31 56.224L1395.44 56.7328L1397.31 59.8815V56.224H1396.31ZM1396.31 45.016V44.016H1395.31V45.016H1396.31ZM1399.5 45.016H1400.5V44.016H1399.5V45.016ZM1399.5 61V62H1400.5V61H1399.5ZM1395.47 61L1394.61 61.5091L1394.9 62H1395.47V61ZM1388.79 49.72L1389.65 49.2109L1387.79 46.0651V49.72H1388.79ZM1388.79 61V62H1389.79V61H1388.79ZM1386.6 61V45.016H1384.6V61H1386.6ZM1385.6 46.016H1389.68V44.016H1385.6V46.016ZM1388.82 45.5248L1395.44 56.7328L1397.17 55.7152L1390.54 44.5072L1388.82 45.5248ZM1397.31 56.224V45.016H1395.31V56.224H1397.31ZM1396.31 46.016H1399.5V44.016H1396.31V46.016ZM1398.5 45.016V61H1400.5V45.016H1398.5ZM1399.5 60H1395.47V62H1399.5V60ZM1396.33 60.4909L1389.65 49.2109L1387.93 50.2291L1394.61 61.5091L1396.33 60.4909ZM1387.79 49.72V61H1389.79V49.72H1387.79ZM1388.79 60H1385.6V62H1388.79V60Z" fill="#F0E6D2" mask="url(#path-34-outside-1_127_316)"/>
</g>
<defs>
<clipPath id="clip0_127_316">
<rect width="1440" height="815" rx="10" fill="white"/>
</clipPath>
</defs>
</svg>
