<svg width="1439" height="1092" viewBox="0 0 1439 1092" fill="none" xmlns="http://www.w3.org/2000/svg">
<rect y="86" width="1439" height="1006" fill="#1D7874"/>
<path d="M461.778 51.6996C431.422 28.533 344.641 -3.90036 279.645 51.6996V90H1599.22V51.6996C1562.17 17.1997 1485.38 14.6996 1446.55 51.6996C1407.71 88.6997 1336.29 71.1996 1303.25 51.6996C1270.22 32.1997 1222.01 25.6996 1171.56 51.6996C1121.12 77.6997 1090.32 75.1996 1040.32 51.6996C990.322 28.1997 941.663 29.6996 895.237 51.6996C848.811 73.6997 788.547 81.6996 755.513 51.6996C722.479 21.6997 645.25 19.1996 598.824 51.6996C561.683 77.6997 500.169 80.9986 461.778 51.6996Z" fill="#1D7874" stroke="#1D7874" stroke-width="13"/>
<path d="M404.183 41.6996C374.152 18.533 288.301 -13.9004 224 41.6996V80H1529.44V41.6996C1492.79 7.19969 1416.83 4.69959 1378.41 41.6996C1339.98 78.6997 1269.32 61.1996 1236.64 41.6996C1203.96 22.1997 1156.27 15.6996 1106.37 41.6996C1056.46 67.6997 1025.99 65.1996 976.528 41.6996C927.066 18.1997 878.929 19.6996 833 41.6996C787.071 63.6997 727.452 71.6996 694.772 41.6996C662.091 11.6997 585.69 9.19959 539.761 41.6996C503.018 67.6997 442.162 70.9986 404.183 41.6996Z" fill="#1D7874" fill-opacity="0.5"/>
<path d="M221.711 39.0521L220.5 40.099V41.6996V80V83.5H224H1529.44H1532.94V80V41.6996V40.1874L1531.84 39.151C1512.71 21.1495 1483.63 11.7068 1454.62 11.3873C1425.61 11.0678 1396.03 19.8721 1375.98 39.1786C1357.78 56.6996 1331.7 61.5445 1305.66 59.399C1279.65 57.2558 1254.33 48.1736 1238.44 38.694C1204.75 18.593 1155.76 12.0157 1104.75 38.5957C1080.09 51.4413 1060.59 57.0628 1041.34 56.7626C1022.04 56.4616 1002.59 50.2079 978.03 38.5383C927.585 14.5714 878.34 16.1008 831.488 38.5431C808.867 49.3785 782.946 56.7252 758.776 57.7025C734.575 58.681 712.553 53.2713 697.138 39.1213C679.927 23.3214 651.678 15.08 622.273 14.7623C592.792 14.4438 561.44 22.072 537.74 38.8426C520.018 51.3828 496.325 58.5351 472.377 58.9373C448.434 59.3394 424.551 52.9923 406.321 38.9284C390.804 26.9581 361.24 12.8175 327.366 8.68786C293.396 4.5464 254.788 10.4503 221.711 39.0521Z" stroke="#1D7874" stroke-opacity="0.5" stroke-width="7"/>
<path d="M577.741 31.6996C547.711 8.53296 461.859 -23.9004 397.558 31.6996V70H1703V31.6996C1666.35 -2.80031 1590.39 -5.30041 1551.96 31.6996C1513.54 68.6997 1442.88 51.1996 1410.2 31.6996C1377.52 12.1997 1329.83 5.69959 1279.92 31.6996C1230.02 57.6997 1199.55 55.1996 1150.09 31.6996C1100.62 8.19969 1052.49 9.69959 1006.56 31.6996C960.629 53.6997 901.01 61.6996 868.33 31.6996C835.65 1.69969 759.249 -0.800413 713.32 31.6996C676.577 57.6997 615.721 60.9986 577.741 31.6996Z" fill="#1D7874" fill-opacity="0.25"/>
<path d="M397.231 31.3214L397.058 31.471V31.6996V70V70.5H397.558H1703H1703.5V70V31.6996V31.4836L1703.34 31.3355C1684.9 13.9782 1656.61 4.70067 1628.15 4.38717C1599.68 4.07364 1570.95 12.7243 1551.62 31.3395C1532.55 49.6996 1505.45 54.5703 1478.97 52.3888C1452.5 50.2076 1426.73 40.9816 1410.46 31.2703C1377.64 11.6844 1329.76 5.17332 1279.69 31.2562C1254.78 44.2342 1234.77 50.073 1214.85 49.7622C1194.91 49.4513 1175.01 42.9865 1150.3 31.248C1100.7 7.68136 1052.4 9.18548 1006.34 31.2487C983.427 42.2252 957.106 49.7033 932.456 50.7C907.8 51.697 884.876 46.2099 868.668 31.3313C852.203 16.217 824.793 8.07542 795.799 7.76217C766.793 7.4488 736.101 14.9671 713.031 31.2915C694.752 44.2258 670.453 51.5259 645.986 51.9368C621.519 52.3477 596.928 45.8696 578.046 31.3037C562.96 19.6651 533.904 5.73076 500.562 1.66581C467.205 -2.40083 429.514 3.40688 397.231 31.3214Z" stroke="#1D7874" stroke-opacity="0.25"/>
</svg>
